<svg width="280" height="200" viewBox="0 0 280 200" fill="none" xmlns="http://www.w3.org/2000/svg">
<path d="M253.494 88.1448L226.946 103.422L278.192 112.982L253.494 88.1448Z" fill="#F5E16C" stroke="#F5E16C"/>
<path d="M278.551 113.772C278.517 114.49 277.934 115.2 276.588 115.791C275.269 116.371 273.346 116.775 270.941 116.974C266.137 117.371 259.518 116.942 252.228 115.582C244.939 114.222 238.394 112.195 233.708 110.028C231.361 108.943 229.509 107.835 228.265 106.776C226.997 105.698 226.488 104.784 226.521 104.065C226.554 103.347 227.138 102.637 228.483 102.046C229.803 101.466 231.725 101.062 234.13 100.863C238.934 100.466 245.553 100.895 252.843 102.255C260.133 103.615 266.678 105.642 271.363 107.809C273.71 108.894 275.562 110.002 276.806 111.06C278.075 112.139 278.584 113.053 278.551 113.772Z" fill="#F2E8B0" stroke="white"/>
<path d="M66.16 48.7133C46.4479 111.406 49.7923 131.688 99.1026 162.669C57.8726 130.341 49.9939 108.31 66.16 48.7133Z" fill="#00FF38"/>
<path d="M99.1028 162.433C59.9075 159.359 65.3281 43.5119 24.048 95.0522C61.9924 54.3874 54.9038 162.433 99.1028 162.433Z" fill="#00FF38"/>
<path d="M24.048 85.1224C73.6676 52.0231 98.2689 111.129 98.2689 162.433C92.6398 108.765 65.9536 59.1159 24.048 85.1224Z" fill="#00FF38"/>
<path d="M109.527 36.4192C65.9535 70.7006 53.8614 101.199 98.0603 162.433C68.0562 108.022 63.512 79.3676 109.527 36.4192Z" fill="#00FF38"/>
<path d="M88.6795 86.0681C83.0529 122.846 85.3854 132.317 98.0613 162.433C87.3912 132.83 85.0797 124.888 90.5558 87.2502L88.6795 86.0681Z" fill="#F2DC15"/>
<path d="M86.8021 74.0106C91.9914 76.6573 92.5955 79.7602 90.5548 87.4867C85.5566 83.2603 84.6771 80.3279 86.8021 74.0106Z" fill="#F2DC15"/>
<path d="M92.8588 83.9339C94.1203 77.642 96.683 76.3568 103.765 77.0968C101.101 83.4888 98.7399 85.0466 92.8588 83.9339Z" fill="#F2DC15"/>
<path d="M92.3758 78.1533C89.9189 72.3333 91.2237 69.5212 97.1802 65.1135C98.592 72.0002 97.5947 74.8837 92.3758 78.1533Z" fill="#F2DC15"/>
<path d="M98.3032 74.5323C100.801 68.7348 103.555 68.1488 110.3 70.7073C106.416 76.2381 103.804 77.1418 98.3032 74.5323Z" fill="#F2DC15"/>
<path d="M106.894 67.5094C110.019 62.1168 112.816 61.9306 119.221 65.4362C114.752 70.3653 112.059 70.887 106.894 67.5094Z" fill="#F2DC15"/>
<path d="M116.815 60.7915C121.688 57.4609 124.281 58.6644 128.721 64.966C122.811 67.2191 120.184 66.3694 116.815 60.7915Z" fill="#F2DC15"/>
<path d="M127.206 59.4859C131.967 55.9524 134.597 57.0459 139.24 63.1563C133.408 65.6566 130.756 64.9181 127.206 59.4859Z" fill="#F2DC15"/>
<path d="M138.599 59.4431C143.786 56.7917 146.235 58.3356 149.984 65.19C143.88 66.6321 141.361 65.435 138.599 59.4431Z" fill="#F2DC15"/>
<path d="M147.355 58.0246C152.542 55.3732 154.991 56.9171 158.74 63.7715C152.636 65.2136 150.117 64.0165 147.355 58.0246Z" fill="#F2DC15"/>
<path d="M99.5103 68.7655C98.2569 62.4716 100.081 60.0591 106.753 57.2648C106.778 64.3351 105.24 66.8946 99.5103 68.7655Z" fill="#F2DC15"/>
<path d="M108.045 61.3083C108.214 54.8587 110.51 53.0378 117.586 52.2172C116.057 59.0715 114.005 61.1157 108.045 61.3083Z" fill="#F2DC15"/>
<path d="M118.086 57.3442C119.718 51.1628 122.351 50.076 129.373 51.3549C126.335 57.529 123.887 58.9031 118.086 57.3442Z" fill="#F2DC15"/>
<path d="M128.314 55.6866C130.623 49.7892 133.356 49.0891 140.18 51.3656C136.477 57.0541 133.895 58.0657 128.314 55.6866Z" fill="#F2DC15"/>
<path d="M138.728 56.5665C141.124 50.7142 143.868 50.0665 150.656 52.4735C146.869 58.0902 144.273 59.0522 138.728 56.5665Z" fill="#F2DC15"/>
<path d="M69.6006 101.036C90.5709 125.586 93.127 134.11 97.2974 164.27C91.8513 135.665 89.9759 128.311 68.7272 103.022L69.6006 101.036Z" fill="#F2DC15"/>
<path d="M65.5246 90.822C62.8256 95.8441 63.7833 98.5432 68.8348 103.201C70.6711 97.0951 69.9982 94.3648 65.5246 90.822Z" fill="#F2DC15"/>
<path d="M65.485 101.854C61.6726 97.828 59.1599 98.3469 54.169 103.028C59.0825 106.313 61.5674 106.118 65.485 101.854Z" fill="#F2DC15"/>
<path d="M63.2173 97.1996C62.4168 91.3667 60.1555 89.9985 53.6688 90.13C55.7409 96.1617 57.8035 97.7629 63.2173 97.1996Z" fill="#F2DC15"/>
<path d="M57.1106 97.9094C52.5931 94.9768 50.2547 96.1361 46.3451 101.997C51.784 103.921 54.1605 103.084 57.1106 97.9094Z" fill="#F2DC15"/>
<path d="M47.4521 97.5954C42.6475 95.3338 40.4584 96.8207 37.2354 103.2C42.8411 104.328 45.1038 103.156 47.4521 97.5954Z" fill="#F2DC15"/>
<path d="M36.9319 98.2859C31.7502 98.602 30.3471 101.022 29.8755 108.372C35.3465 106.638 36.9356 104.467 36.9319 98.2859Z" fill="#F2DC15"/>
<path d="M28.5214 103.345C23.3319 103.442 21.8504 105.8 21.1389 113.125C26.6639 111.623 28.3232 109.52 28.5214 103.345Z" fill="#F2DC15"/>
<path d="M19.9317 109.942C14.8228 110.955 13.6831 113.548 13.9827 120.915C19.2305 118.454 20.5807 116.083 19.9317 109.942Z" fill="#F2DC15"/>
<path d="M12.6991 113.964C7.59025 114.977 6.45057 117.57 6.75014 124.937C11.9979 122.477 13.3482 120.105 12.6991 113.964Z" fill="#F2DC15"/>
<path d="M53.5781 94.249C51.6565 88.7579 49.1867 87.994 42.896 89.7625C46.0947 95.1263 48.4166 96.1677 53.5781 94.249Z" fill="#F2DC15"/>
<path d="M43.7644 93.5735C40.7017 88.7925 38.1456 88.7512 32.4496 92.2478C36.7194 96.5435 39.1934 96.8959 43.7644 93.5735Z" fill="#F2DC15"/>
<path d="M34.4072 96.4173C30.3663 92.6904 27.8909 93.4005 23.1903 98.4545C28.2856 101.358 30.7523 100.973 34.4072 96.4173Z" fill="#F2DC15"/>
<path d="M25.9582 101.115C21.5375 97.9972 19.1628 99.0581 15.0661 104.751C20.4403 106.9 22.8427 106.163 25.9582 101.115Z" fill="#F2DC15"/>
<path d="M18.5251 107.841C14.059 104.808 11.7006 105.914 7.68955 111.686C13.0944 113.731 15.4853 112.948 18.5251 107.841Z" fill="#F2DC15"/>
<path d="M71.2468 64.5885C70.3591 112.877 75.4028 124.306 98.7726 159.239C78.2964 124.423 73.5713 114.936 74.0864 65.5922L71.2468 64.5885Z" fill="#F2DC15"/>
<path d="M66.3503 49.7489C74.086 51.7328 75.5152 55.5193 74.1317 65.8929C66.3635 61.8485 64.5826 58.3523 66.3503 49.7489Z" fill="#F2DC15"/>
<path d="M76.6719 60.7589C77.2404 52.418 80.5702 50.0997 90.5848 49.1531C88.0787 57.9955 85.0818 60.6066 76.6719 60.7589Z" fill="#F2DC15"/>
<path d="M74.905 53.5335C70.3786 46.7842 71.6658 42.8588 79.1367 35.6634C82.4078 44.0483 81.5628 47.9826 74.905 53.5335Z" fill="#F2DC15"/>
<path d="M82.484 47.3467C84.8699 39.3052 88.5988 37.8254 98.487 39.2823C94.118 47.354 90.6464 49.2001 82.484 47.3467Z" fill="#F2DC15"/>
<path d="M93.1332 36.1218C96.4694 28.4283 100.334 27.4456 109.928 30.198C104.628 37.6604 100.973 39.0418 93.1332 36.1218Z" fill="#F2DC15"/>
<path d="M105.694 24.9306C111.859 19.3941 115.702 20.2339 123.083 27.0674C115.27 31.5093 111.447 31.1286 105.694 24.9306Z" fill="#F2DC15"/>
<path d="M119.934 20.4994C125.904 14.7348 129.779 15.4246 137.407 21.9606C129.749 26.6964 125.911 26.464 119.934 20.4994Z" fill="#F2DC15"/>
<path d="M135.81 17.4079C142.541 12.6518 146.248 13.9631 152.771 21.6839C144.534 25.1458 140.795 24.2944 135.81 17.4079Z" fill="#F2DC15"/>
<path d="M147.75 13.2688C154.481 8.51267 158.188 9.82399 164.711 17.5448C156.474 21.0067 152.735 20.1553 147.75 13.2688Z" fill="#F2DC15"/>
<path d="M83.0763 39.6884C80.1381 32.0153 82.2245 28.4599 90.9982 23.1263C92.3709 32.1144 90.7106 35.7808 83.0763 39.6884Z" fill="#F2DC15"/>
<path d="M93.5645 27.9261C92.5805 19.6757 95.4378 16.7469 105.147 13.8167C104.312 22.9445 101.838 26.0922 93.5645 27.9261Z" fill="#F2DC15"/>
<path d="M106.814 20.2061C107.92 11.907 111.385 9.82241 121.418 9.57725C118.35 18.242 115.197 20.6426 106.814 20.2061Z" fill="#F2DC15"/>
<path d="M120.761 15.3704C122.865 7.25211 126.543 5.63276 136.487 6.70996C132.4 14.934 128.993 16.9092 120.761 15.3704Z" fill="#F2DC15"/>
<path d="M135.447 13.7136C137.681 5.62937 141.383 4.0741 151.303 5.32653C147.086 13.4817 143.648 15.3977 135.447 13.7136Z" fill="#F2DC15"/>
<path d="M133.378 103.864V105.831L130.353 106.417C130.037 106.48 129.792 106.618 129.615 106.833C129.451 107.047 129.369 107.312 129.369 107.627V129.713C129.369 130.04 129.451 130.305 129.615 130.507C129.779 130.709 130.025 130.841 130.353 130.904L133.378 131.471V133.4H121.56V131.471L124.169 130.923C124.484 130.86 124.724 130.727 124.888 130.526C125.064 130.311 125.153 130.04 125.153 129.713V119.464H111.236V129.732C111.236 130.059 111.317 130.324 111.481 130.526C111.645 130.727 111.885 130.86 112.2 130.923L114.998 131.471V133.4H103.01V131.471L106.036 130.904C106.363 130.841 106.609 130.709 106.773 130.507C106.937 130.305 107.019 130.04 107.019 129.713V107.627C107.019 107.299 106.931 107.034 106.754 106.833C106.59 106.618 106.351 106.48 106.036 106.417L103.01 105.831V103.864H114.98V105.831L112.181 106.417C111.866 106.48 111.626 106.612 111.462 106.814C111.311 107.015 111.236 107.28 111.236 107.608V117.081H125.153V107.608C125.153 107.293 125.071 107.034 124.907 106.833C124.743 106.631 124.503 106.492 124.188 106.417L121.579 105.831V103.864H133.378ZM144.536 131.169C145.443 131.169 146.363 130.999 147.296 130.658C148.229 130.305 149.023 129.858 149.679 129.316V124.267L146.067 124.588C144.542 124.714 143.369 125.061 142.55 125.628C141.743 126.196 141.34 127.059 141.34 128.219C141.34 129.152 141.598 129.877 142.115 130.393C142.645 130.91 143.451 131.169 144.536 131.169ZM153.272 133.721C152.364 133.721 151.62 133.495 151.04 133.041C150.46 132.574 150.057 131.9 149.83 131.017C149.036 131.875 148.046 132.562 146.861 133.079C145.676 133.583 144.409 133.835 143.061 133.835C142.203 133.835 141.403 133.721 140.659 133.495C139.915 133.268 139.273 132.94 138.73 132.511C138.201 132.07 137.779 131.528 137.464 130.885C137.161 130.23 137.01 129.486 137.01 128.654C137.01 127.557 137.262 126.637 137.766 125.893C138.27 125.149 138.92 124.551 139.714 124.097C140.521 123.643 141.416 123.303 142.399 123.076C143.395 122.849 144.372 122.697 145.33 122.622L149.679 122.263V119.71C149.679 117.768 149.288 116.401 148.506 115.607C147.737 114.812 146.559 114.415 144.97 114.415C143.773 114.415 142.638 114.617 141.567 115.02C140.508 115.411 139.525 116.029 138.617 116.873L137.653 115.909C137.892 115.191 138.283 114.554 138.825 113.999C139.367 113.432 140.004 112.959 140.735 112.581C141.479 112.203 142.311 111.919 143.231 111.73C144.151 111.528 145.109 111.428 146.105 111.428C148.614 111.428 150.498 112.064 151.759 113.337C153.019 114.598 153.65 116.533 153.65 119.143V129.845C153.65 130.248 153.738 130.545 153.914 130.734C154.104 130.91 154.375 131.017 154.728 131.055L156.902 131.244V133.041C156.587 133.154 156.051 133.293 155.295 133.457C154.551 133.633 153.877 133.721 153.272 133.721ZM172.12 131.528V133.4H159.829V131.471L162.155 131.112C162.483 131.062 162.735 130.942 162.912 130.753C163.101 130.551 163.195 130.286 163.195 129.959V115.947C163.195 115.569 163.113 115.272 162.949 115.058C162.798 114.844 162.54 114.711 162.174 114.661L159.565 114.283V112.43C160.561 112.127 161.638 111.888 162.798 111.711C163.958 111.535 165.029 111.44 166.013 111.428L166.656 112.033L167.09 115.493C167.481 114.951 167.948 114.428 168.49 113.924C169.032 113.419 169.612 112.978 170.229 112.6C170.847 112.209 171.496 111.9 172.177 111.673C172.87 111.434 173.557 111.314 174.238 111.314C174.629 111.314 175.076 111.358 175.581 111.447C176.085 111.535 176.495 111.661 176.81 111.825C176.898 112.884 176.898 114.081 176.81 115.417C176.734 116.754 176.583 117.97 176.356 119.067H174.37L173.822 116.136C173.734 115.72 173.589 115.43 173.387 115.266C173.198 115.102 172.914 115.02 172.536 115.02C171.654 115.008 170.746 115.184 169.813 115.55C168.893 115.915 168.036 116.495 167.242 117.289V129.959C167.242 130.299 167.33 130.57 167.506 130.772C167.696 130.961 167.96 131.074 168.301 131.112L172.12 131.528ZM188.354 133.721L181.112 115.172C181.011 114.907 180.866 114.699 180.677 114.548C180.501 114.384 180.274 114.258 179.997 114.169L178.578 113.772V111.9H188.714V113.772L185.423 114.34L190.964 129.751L196.221 114.359L192.987 113.772V111.9H201.194V113.772L199.775 114.169C199.498 114.245 199.259 114.359 199.057 114.51C198.868 114.661 198.729 114.875 198.641 115.153L191.909 133.721H188.354ZM213.347 113.47C211.986 113.47 210.857 113.943 209.962 114.888C209.067 115.821 208.487 117.315 208.223 119.369H217.734C217.746 119.231 217.759 119.092 217.772 118.953C217.784 118.802 217.791 118.645 217.791 118.481C217.791 117.006 217.406 115.802 216.637 114.869C215.868 113.936 214.771 113.47 213.347 113.47ZM221.762 128.711C221.257 130.236 220.274 131.478 218.812 132.436C217.349 133.381 215.534 133.854 213.366 133.854C211.752 133.854 210.34 133.583 209.13 133.041C207.933 132.486 206.937 131.723 206.143 130.753C205.361 129.782 204.775 128.622 204.384 127.273C203.993 125.925 203.798 124.456 203.798 122.868C203.798 121.065 204.037 119.445 204.516 118.008C204.995 116.571 205.676 115.361 206.559 114.377C207.441 113.382 208.506 112.625 209.754 112.108C211.002 111.579 212.389 111.314 213.914 111.314C215.087 111.314 216.158 111.478 217.129 111.806C218.099 112.121 218.931 112.587 219.625 113.205C220.318 113.823 220.854 114.598 221.232 115.531C221.623 116.464 221.818 117.542 221.818 118.764C221.818 119.117 221.799 119.546 221.762 120.05C221.724 120.542 221.673 120.983 221.61 121.374H208.071C208.071 121.462 208.071 121.557 208.071 121.657C208.071 121.758 208.071 121.859 208.071 121.96C208.071 123.662 208.235 125.099 208.563 126.271C208.891 127.431 209.338 128.364 209.906 129.07C210.473 129.763 211.147 130.261 211.929 130.564C212.71 130.866 213.555 131.017 214.463 131.017C215.698 131.017 216.839 130.74 217.885 130.185C218.944 129.631 219.782 128.881 220.4 127.935L221.762 128.711ZM226.488 132.228C226.362 131.219 226.311 130.217 226.337 129.221C226.362 128.213 226.438 127.28 226.564 126.423H228.719L229.457 129.278C229.558 129.706 229.671 130.034 229.797 130.261C229.923 130.475 230.125 130.671 230.402 130.847C230.73 131.049 231.234 131.27 231.915 131.509C232.608 131.749 233.402 131.868 234.297 131.868C235.621 131.868 236.623 131.566 237.304 130.961C237.997 130.356 238.344 129.555 238.344 128.559C238.344 127.954 238.212 127.444 237.947 127.028C237.695 126.599 237.323 126.215 236.831 125.874C236.34 125.534 235.728 125.206 234.997 124.891C234.266 124.576 233.428 124.229 232.482 123.851C230.793 123.145 229.406 122.351 228.322 121.468C227.238 120.573 226.696 119.262 226.696 117.535C226.696 116.514 226.891 115.619 227.282 114.85C227.673 114.069 228.215 113.419 228.908 112.903C229.614 112.373 230.459 111.976 231.442 111.711C232.425 111.447 233.503 111.314 234.676 111.314C235.772 111.314 236.913 111.434 238.098 111.673C239.296 111.913 240.279 112.203 241.048 112.543C241.098 113.451 241.092 114.377 241.029 115.323C240.966 116.256 240.853 117.176 240.689 118.084H238.665L238.022 115.512C237.934 115.159 237.814 114.863 237.663 114.623C237.512 114.384 237.279 114.169 236.964 113.98C236.686 113.816 236.321 113.665 235.867 113.527C235.426 113.388 234.902 113.312 234.297 113.3C233.201 113.287 232.28 113.533 231.537 114.037C230.806 114.541 230.44 115.323 230.44 116.382C230.44 117.025 230.579 117.567 230.856 118.008C231.146 118.437 231.524 118.808 231.99 119.124C232.457 119.439 232.986 119.716 233.579 119.956C234.184 120.195 234.802 120.435 235.432 120.674C236.302 121.002 237.146 121.361 237.966 121.752C238.785 122.143 239.504 122.603 240.121 123.132C240.752 123.662 241.256 124.286 241.634 125.004C242.025 125.723 242.22 126.574 242.22 127.557C242.22 128.566 242.012 129.467 241.596 130.261C241.193 131.043 240.619 131.704 239.876 132.247C239.144 132.776 238.262 133.179 237.228 133.457C236.195 133.734 235.06 133.873 233.825 133.873C232.325 133.873 230.932 133.696 229.646 133.343C228.373 132.99 227.32 132.618 226.488 132.228ZM248.665 128.049V114.642L245.394 114.226V112.43L247.796 112.108C248.136 112.058 248.394 111.944 248.571 111.768C248.747 111.591 248.88 111.346 248.968 111.031L250.311 105.471H252.655L252.712 111.9H259.784V114.491H252.731V126.706C252.731 128.345 253.008 129.442 253.563 129.996C254.13 130.551 254.893 130.828 255.851 130.828C256.645 130.828 257.376 130.683 258.044 130.393C258.725 130.103 259.311 129.687 259.803 129.145L260.975 130.223C260.408 131.396 259.532 132.291 258.347 132.908C257.175 133.513 255.876 133.816 254.452 133.816C253.683 133.816 252.945 133.728 252.239 133.551C251.533 133.375 250.916 133.072 250.386 132.644C249.869 132.202 249.453 131.61 249.138 130.866C248.823 130.122 248.665 129.183 248.665 128.049Z" fill="#339E4A"/>
</svg>
