<svg width="24" height="24" viewBox="0 0 24 24" fill="none" xmlns="http://www.w3.org/2000/svg">
<path d="M24 4.49994V19.4999C24 20.3512 23.3512 20.9999 22.5 20.9999H21V7.38669L12 13.8517L3 7.38669V20.9999H1.5C0.64875 20.9999 0 20.3512 0 19.4999V4.49994C0 4.07394 0.1605 3.69894 0.42975 3.43344C0.569979 3.29314 0.736987 3.18246 0.920845 3.10799C1.1047 3.03352 1.30166 2.99678 1.5 2.99994H2.00025L12 10.2502L21.9998 2.99994H22.5C22.926 2.99994 23.301 3.16044 23.5702 3.43344C23.8395 3.69894 24 4.07394 24 4.49994Z" fill="#FF0000"/>
</svg>
